<?xml version="1.0" encoding="UTF-8" standalone="no"?>
<svg
   xmlns:svg="http://www.w3.org/2000/svg"
   xmlns="http://www.w3.org/2000/svg"
   xmlns:xlink="http://www.w3.org/1999/xlink"
   xmlns:sodipodi="http://sodipodi.sourceforge.net/DTD/sodipodi-0.dtd"
   xmlns:inkscape="http://www.inkscape.org/namespaces/inkscape"
   width="70"
   height="70"
   viewBox="0 0 70 70"
   version="1.1"
   id="svg33"
   sodipodi:docname="icon.svg"
   inkscape:export-filename="/home/david/odoo/oca13/odoo/custom/src/sale-promotion/coupon_limit/static/description/icon.png"
   inkscape:export-xdpi="192"
   inkscape:export-ydpi="192"
   inkscape:version="1.1-dev (1:1.0+devel+202007152027+7044d6c)">
  <sodipodi:namedview
     pagecolor="#ffffff"
     bordercolor="#666666"
     borderopacity="1"
     objecttolerance="10"
     gridtolerance="10"
     guidetolerance="10"
     inkscape:pageopacity="0"
     inkscape:pageshadow="2"
     inkscape:window-width="1867"
     inkscape:window-height="1016"
     id="namedview35"
     showgrid="false"
     inkscape:zoom="3.0214286"
     inkscape:cx="-61.394798"
     inkscape:cy="23.664302"
     inkscape:window-x="1973"
     inkscape:window-y="27"
     inkscape:window-maximized="1"
     inkscape:current-layer="layer3" />
  <defs
     id="defs12">
    <path
       id="a"
       d="M4 0h61c4 0 5 1 5 5v60c0 4-1 5-5 5H4c-3 0-4-1-4-5V5c0-4 1-5 4-5z" />
    <linearGradient
       id="c"
       x1="98.162%"
       x2="0%"
       y1="1.838%"
       y2="100%">
      <stop
         offset="0%"
         stop-color="#797DA5"
         id="stop3" />
      <stop
         offset="50.799%"
         stop-color="#6D7194"
         id="stop5" />
      <stop
         offset="100%"
         stop-color="#626584"
         id="stop7" />
    </linearGradient>
    <path
       id="d"
       d="M50 31.035a3.5 3.5 0 1 0 0 6.93v3.06a1.633 1.633 0 0 1-1.588 1.286L26.974 43l.998 4h18.955c.998 0 .998 2 0 2h-20.95L19.99 25h-1.996v1c0 .667-.332 1-.997 1S16 26.667 16 26v-2c.066-.667.398-1 .998-1h3.99c.516 0 .848.333.998 1l.998 3.281 25.428.037c1.045 0 1.588.761 1.588 2.018v1.7zM45.43 55a2.497 2.497 0 0 1-2.493-2.5c0-1.38 1.116-2.5 2.494-2.5a2.497 2.497 0 0 1 2.494 2.5c0 1.38-1.117 2.5-2.494 2.5zm-18.955 0a2.497 2.497 0 0 1-2.494-2.5c0-1.38 1.117-2.5 2.494-2.5a2.497 2.497 0 0 1 2.495 2.5c0 1.38-1.117 2.5-2.495 2.5zm12.7-24.996a.51.51 0 0 0-.409.2l-7.668 9.056c-.233.31.004.738.41.738l.696-.002a.51.51 0 0 0 .409-.2l7.63-9.056c.234-.312-.005-.74-.41-.738l-.658.002zm-5.841 4.371c1.29 0 2.334-.979 2.334-2.188 0-1.208-1.044-2.187-2.334-2.187S31 30.979 31 32.188c0 1.208 1.044 2.187 2.334 2.187zm0-3.125c.552 0 1 .42 1 .938 0 .517-.448.937-1 .937s-1-.42-1-.938c0-.517.448-.937 1-.937zm4.668 4.375c-1.29 0-2.334.979-2.334 2.188 0 1.208 1.044 2.187 2.334 2.187s2.334-.979 2.334-2.188c0-1.208-1.044-2.187-2.334-2.187zm0 3.125c-.553 0-1-.42-1-.938 0-.517.447-.937 1-.937.552 0 1 .42 1 .938 0 .517-.448.937-1 .937z" />
    <path
       id="e"
       d="M50 30a3 3 0 0 0 0 6v3.025a1.633 1.633 0 0 1-1.588 1.286L26.974 41l.998 4h18.955c.998 0 .998 2 0 2h-20.95L19.99 23h-1.996v1c0 .667-.332 1-.997 1S16 24.667 16 24v-2c.066-.667.398-1 .998-1h3.99c.516 0 .848.333.998 1l.998 3.281 25.428.037c1.045 0 1.588.761 1.588 2.018V30zm-4.57 23a2.497 2.497 0 0 1-2.493-2.5c0-1.38 1.116-2.5 2.494-2.5a2.497 2.497 0 0 1 2.494 2.5c0 1.38-1.117 2.5-2.494 2.5zm-18.955 0a2.497 2.497 0 0 1-2.494-2.5c0-1.38 1.117-2.5 2.494-2.5a2.497 2.497 0 0 1 2.495 2.5c0 1.38-1.117 2.5-2.495 2.5zM48 26a1 1 0 1 0 0 2 1 1 0 0 0 0-2zm0 11a1 1 0 1 0 0 2 1 1 0 0 0 0-2zm-8.825-8.996a.51.51 0 0 0-.409.2l-7.668 9.056c-.233.31.004.738.41.738l.696-.002a.51.51 0 0 0 .409-.2l7.63-9.056c.234-.312-.005-.74-.41-.738l-.658.002zm-5.841 4.371c1.29 0 2.334-.979 2.334-2.188 0-1.208-1.044-2.187-2.334-2.187S31 28.979 31 30.188c0 1.208 1.044 2.187 2.334 2.187zm0-3.125c.552 0 1 .42 1 .938 0 .517-.448.937-1 .937s-1-.42-1-.938c0-.517.448-.937 1-.937zm4.668 4.375c-1.29 0-2.334.979-2.334 2.188 0 1.208 1.044 2.187 2.334 2.187s2.334-.979 2.334-2.188c0-1.208-1.044-2.187-2.334-2.187zm0 3.125c-.553 0-1-.42-1-.938 0-.517.447-.937 1-.937.552 0 1 .42 1 .938 0 .517-.448.937-1 .937z" />
  </defs>
  <g
     fill="none"
     fill-rule="evenodd"
     id="g31">
    <mask
       id="b"
       fill="#fff">
      <use
         xlink:href="#a"
         id="use14" />
    </mask>
    <g
       mask="url(#b)"
       id="g29">
      <path
         fill="url(#c)"
         d="M0 0H70V70H0z"
         id="path17" />
      <path
         fill="#FFF"
         fill-opacity=".383"
         d="M4 1h61c2.667 0 4.333.667 5 2V0H0v3c.667-1.333 2-2 4-2z"
         id="path19" />
      <path
         fill="#393939"
         d="M33.317 69H4c-2 0-4-1-4-4V38.29l16.258-16.95L21 21l2 5h26.583l.371 3.987-3.862 4.883 3.764 1.445-.11 3.27L45.076 45H47l.507 1.61-1.993 1.943 1.815 3.434L33.317 69z"
         opacity=".324"
         id="path21" />
      <path
         fill="#000"
         fill-opacity=".383"
         d="M4 69h61c2.667 0 4.333-1 5-3v4H0v-4c.667 2 2 3 4 3z"
         id="path23" />
      <use
         fill="#000"
         fill-rule="nonzero"
         opacity=".3"
         xlink:href="#d"
         id="use25" />
      <use
         fill="#FFF"
         fill-rule="nonzero"
         xlink:href="#e"
         id="use27" />
    </g>
  </g>
  <g
     inkscape:groupmode="layer"
     id="layer1"
     inkscape:label="Layer 1"
     sodipodi:insensitive="true" />
  <g
     inkscape:groupmode="layer"
     id="layer2"
     inkscape:label="Layer 2"
     sodipodi:insensitive="true" />
  <rect
     style="fill:#ffffff"
     id="rect41"
     width="18.367119"
     height="12.044328"
     x="26.893293"
     y="26.564003" />
  <g
     inkscape:groupmode="layer"
     id="layer3"
     inkscape:label="Layer 3">
    <path
       id="path45"
       d="m 31.148544,38.469422 c -0.113656,-0.05626 -0.252215,-0.177354 -0.310104,-0.271023 -0.09466,-0.153157 -0.102175,-0.216546 -0.07876,-0.66407 0.03031,-0.579504 0.11939,-0.940751 0.355772,-1.442892 0.554314,-1.177514 1.688075,-2.005233 3.008072,-2.196085 0.357349,-0.05167 0.435865,-0.05016 0.531278,0.01019 0.229626,0.145235 5.767343,4.530941 5.767343,4.567563 0,0.02098 -0.04923,0.05133 -0.1094,0.06745 -0.06017,0.01613 -2.100502,0.0296 -4.534071,0.02994 -4.392001,7.62e-4 -4.426186,-1.49e-4 -4.630128,-0.101077 z m 11.210747,0.03612 C 42.165095,38.400592 29.003849,28.08149 28.764842,27.846795 c -0.157285,-0.154447 -0.206647,-0.239866 -0.206647,-0.357598 0,-0.313211 0.25471,-0.587854 0.544591,-0.587207 0.16995,3.81e-4 0.332455,0.116948 2.100939,1.507055 0.901571,0.708676 1.655156,1.29426 1.674633,1.301298 0.01947,0.007 0.0701,-0.170962 0.112504,-0.395555 0.208925,-1.106657 0.986551,-1.97349 2.06101,-2.297444 0.4521,-0.136309 1.203417,-0.115698 1.699254,0.04662 0.888781,0.290949 1.536501,0.950595 1.853533,1.887663 0.452722,1.338132 -0.156146,2.795939 -1.435116,3.436084 -0.222951,0.11159 -0.436944,0.202891 -0.475539,0.202891 -0.03859,0 -0.05743,0.02063 -0.04184,0.04584 0.01558,0.02521 1.452828,1.167016 3.193884,2.537344 3.398609,2.674935 3.363127,2.642402 3.251333,2.98114 -0.108058,0.327422 -0.466221,0.497563 -0.738087,0.350628 z"
       style="fill:#414353;fill-opacity:1;stroke-width:0.0486227" />
  </g>
</svg>
