<?xml version="1.0" encoding="UTF-8" standalone="no"?>
<svg
   xmlns:svg="http://www.w3.org/2000/svg"
   xmlns="http://www.w3.org/2000/svg"
   xmlns:xlink="http://www.w3.org/1999/xlink"
   xmlns:sodipodi="http://sodipodi.sourceforge.net/DTD/sodipodi-0.dtd"
   xmlns:inkscape="http://www.inkscape.org/namespaces/inkscape"
   inkscape:version="1.1-dev (1:1.0+devel+202007152027+7044d6c)"
   inkscape:export-ydpi="192"
   inkscape:export-xdpi="192"
   inkscape:export-filename="/home/david/Imágenes/sale-coupon.png"
   sodipodi:docname="sale-coupon.svg"
   id="svg33"
   version="1.1"
   viewBox="0 0 70 70"
   height="70"
   width="70">
  <sodipodi:namedview
     inkscape:current-layer="layer3"
     inkscape:window-maximized="1"
     inkscape:window-y="27"
     inkscape:window-x="1973"
     inkscape:cy="22.009456"
     inkscape:cx="-53.286052"
     inkscape:zoom="3.0214286"
     showgrid="false"
     id="namedview35"
     inkscape:window-height="1016"
     inkscape:window-width="1867"
     inkscape:pageshadow="2"
     inkscape:pageopacity="0"
     guidetolerance="10"
     gridtolerance="10"
     objecttolerance="10"
     borderopacity="1"
     bordercolor="#666666"
     pagecolor="#ffffff" />
  <defs
     id="defs12">
    <path
       d="M4 0h61c4 0 5 1 5 5v60c0 4-1 5-5 5H4c-3 0-4-1-4-5V5c0-4 1-5 4-5z"
       id="a" />
    <linearGradient
       y2="100%"
       y1="1.838%"
       x2="0%"
       x1="98.162%"
       id="c">
      <stop
         id="stop3"
         stop-color="#797DA5"
         offset="0%" />
      <stop
         id="stop5"
         stop-color="#6D7194"
         offset="50.799%" />
      <stop
         id="stop7"
         stop-color="#626584"
         offset="100%" />
    </linearGradient>
    <path
       d="M50 31.035a3.5 3.5 0 1 0 0 6.93v3.06a1.633 1.633 0 0 1-1.588 1.286L26.974 43l.998 4h18.955c.998 0 .998 2 0 2h-20.95L19.99 25h-1.996v1c0 .667-.332 1-.997 1S16 26.667 16 26v-2c.066-.667.398-1 .998-1h3.99c.516 0 .848.333.998 1l.998 3.281 25.428.037c1.045 0 1.588.761 1.588 2.018v1.7zM45.43 55a2.497 2.497 0 0 1-2.493-2.5c0-1.38 1.116-2.5 2.494-2.5a2.497 2.497 0 0 1 2.494 2.5c0 1.38-1.117 2.5-2.494 2.5zm-18.955 0a2.497 2.497 0 0 1-2.494-2.5c0-1.38 1.117-2.5 2.494-2.5a2.497 2.497 0 0 1 2.495 2.5c0 1.38-1.117 2.5-2.495 2.5zm12.7-24.996a.51.51 0 0 0-.409.2l-7.668 9.056c-.233.31.004.738.41.738l.696-.002a.51.51 0 0 0 .409-.2l7.63-9.056c.234-.312-.005-.74-.41-.738l-.658.002zm-5.841 4.371c1.29 0 2.334-.979 2.334-2.188 0-1.208-1.044-2.187-2.334-2.187S31 30.979 31 32.188c0 1.208 1.044 2.187 2.334 2.187zm0-3.125c.552 0 1 .42 1 .938 0 .517-.448.937-1 .937s-1-.42-1-.938c0-.517.448-.937 1-.937zm4.668 4.375c-1.29 0-2.334.979-2.334 2.188 0 1.208 1.044 2.187 2.334 2.187s2.334-.979 2.334-2.188c0-1.208-1.044-2.187-2.334-2.187zm0 3.125c-.553 0-1-.42-1-.938 0-.517.447-.937 1-.937.552 0 1 .42 1 .938 0 .517-.448.937-1 .937z"
       id="d" />
    <path
       d="M50 30a3 3 0 0 0 0 6v3.025a1.633 1.633 0 0 1-1.588 1.286L26.974 41l.998 4h18.955c.998 0 .998 2 0 2h-20.95L19.99 23h-1.996v1c0 .667-.332 1-.997 1S16 24.667 16 24v-2c.066-.667.398-1 .998-1h3.99c.516 0 .848.333.998 1l.998 3.281 25.428.037c1.045 0 1.588.761 1.588 2.018V30zm-4.57 23a2.497 2.497 0 0 1-2.493-2.5c0-1.38 1.116-2.5 2.494-2.5a2.497 2.497 0 0 1 2.494 2.5c0 1.38-1.117 2.5-2.494 2.5zm-18.955 0a2.497 2.497 0 0 1-2.494-2.5c0-1.38 1.117-2.5 2.494-2.5a2.497 2.497 0 0 1 2.495 2.5c0 1.38-1.117 2.5-2.495 2.5zM48 26a1 1 0 1 0 0 2 1 1 0 0 0 0-2zm0 11a1 1 0 1 0 0 2 1 1 0 0 0 0-2zm-8.825-8.996a.51.51 0 0 0-.409.2l-7.668 9.056c-.233.31.004.738.41.738l.696-.002a.51.51 0 0 0 .409-.2l7.63-9.056c.234-.312-.005-.74-.41-.738l-.658.002zm-5.841 4.371c1.29 0 2.334-.979 2.334-2.188 0-1.208-1.044-2.187-2.334-2.187S31 28.979 31 30.188c0 1.208 1.044 2.187 2.334 2.187zm0-3.125c.552 0 1 .42 1 .938 0 .517-.448.937-1 .937s-1-.42-1-.938c0-.517.448-.937 1-.937zm4.668 4.375c-1.29 0-2.334.979-2.334 2.188 0 1.208 1.044 2.187 2.334 2.187s2.334-.979 2.334-2.188c0-1.208-1.044-2.187-2.334-2.187zm0 3.125c-.553 0-1-.42-1-.938 0-.517.447-.937 1-.937.552 0 1 .42 1 .938 0 .517-.448.937-1 .937z"
       id="e" />
  </defs>
  <g
     id="g31"
     fill-rule="evenodd"
     fill="none">
    <mask
       fill="#fff"
       id="b">
      <use
         id="use14"
         xlink:href="#a" />
    </mask>
    <g
       id="g29"
       mask="url(#b)">
      <path
         id="path17"
         d="M0 0H70V70H0z"
         fill="url(#c)" />
      <path
         id="path19"
         d="M4 1h61c2.667 0 4.333.667 5 2V0H0v3c.667-1.333 2-2 4-2z"
         fill-opacity=".383"
         fill="#FFF" />
      <path
         id="path21"
         opacity=".324"
         d="M33.317 69H4c-2 0-4-1-4-4V38.29l16.258-16.95L21 21l2 5h26.583l.371 3.987-3.862 4.883 3.764 1.445-.11 3.27L45.076 45H47l.507 1.61-1.993 1.943 1.815 3.434L33.317 69z"
         fill="#393939" />
      <path
         id="path23"
         d="M4 69h61c2.667 0 4.333-1 5-3v4H0v-4c.667 2 2 3 4 3z"
         fill-opacity=".383"
         fill="#000" />
      <use
         id="use25"
         xlink:href="#d"
         opacity=".3"
         fill-rule="nonzero"
         fill="#000" />
      <use
         id="use27"
         xlink:href="#e"
         fill-rule="nonzero"
         fill="#FFF" />
    </g>
  </g>
  <g
     sodipodi:insensitive="true"
     inkscape:label="Layer 1"
     id="layer1"
     inkscape:groupmode="layer" />
  <g
     sodipodi:insensitive="true"
     inkscape:label="Layer 2"
     id="layer2"
     inkscape:groupmode="layer" />
  <rect
     y="26.564003"
     x="26.893293"
     height="12.044328"
     width="18.367119"
     id="rect41"
     style="fill:#ffffff" />
  <g
     inkscape:label="Layer 3"
     id="layer3"
     inkscape:groupmode="layer">
    <path
       id="path56"
       d="m 28.259095,39.329148 c -0.06668,-0.01307 -0.211632,-0.0667 -0.322128,-0.119185 -0.395982,-0.188047 -0.666719,-0.560129 -0.762934,-1.048508 -0.03997,-0.203091 -0.03997,-0.239474 6.94e-4,-0.446184 0.119107,-0.605822 0.48459,-0.999166 1.070093,-1.151671 0.687027,-0.178947 1.457329,0.263796 1.679947,0.965564 0.153158,0.482845 0.0084,1.059084 -0.359187,1.426317 -0.325245,0.325248 -0.824785,0.468121 -1.306477,0.373667 z m 4.349633,-0.445081 c -0.184849,-0.04568 -0.282687,-0.100717 -0.415943,-0.233971 -0.217149,-0.217154 -0.314005,-0.547481 -0.254772,-0.868939 0.05147,-0.279362 0.170059,-0.46571 0.384547,-0.604295 0.267297,-0.172708 0.01183,-0.164052 4.841939,-0.164052 4.830116,0 4.574641,-0.0086 4.841938,0.164052 0.217082,0.14026 0.334206,0.326377 0.383491,0.609386 0.05704,0.327786 -0.03668,0.646804 -0.253945,0.864073 -0.135081,0.135081 -0.256903,0.200279 -0.451157,0.241452 -0.217319,0.04607 -8.888316,0.0387 -9.076098,-0.0077 z m -3.802404,-3.831816 c -0.130417,-0.0464 -0.220158,-0.125179 -0.800921,-0.703111 -0.359735,-0.357971 -0.689012,-0.704598 -0.731731,-0.770284 -0.118316,-0.18189 -0.151274,-0.368462 -0.09769,-0.552819 0.06457,-0.222115 0.17529,-0.357126 0.374498,-0.456673 0.204599,-0.102238 0.341659,-0.108723 0.561258,-0.02656 0.131744,0.04929 0.215705,0.116575 0.534046,0.427981 l 0.377736,0.369495 0.06296,-0.06652 c 0.03465,-0.03659 0.400832,-0.440939 0.813783,-0.898562 0.412942,-0.457623 0.780183,-0.859063 0.816091,-0.892088 0.114046,-0.10491 0.323995,-0.182877 0.489272,-0.181708 0.426184,0.0029 0.761082,0.454133 0.641788,0.864504 -0.02324,0.07994 -0.07268,0.19017 -0.109856,0.24496 -0.03719,0.05478 -0.565492,0.652126 -1.174016,1.327411 -0.76601,0.850054 -1.139249,1.244545 -1.213145,1.282244 -0.161127,0.08219 -0.368261,0.09429 -0.544086,0.03173 z m 5.712006,-0.942195 c -0.184849,-0.04569 -0.282686,-0.100717 -0.415934,-0.233969 -0.217158,-0.217156 -0.314014,-0.547482 -0.254781,-0.868939 0.05146,-0.279362 0.17006,-0.465711 0.384546,-0.604297 0.264061,-0.170616 0.108503,-0.16405 3.887142,-0.16405 3.778631,0 3.623074,-0.0066 3.887134,0.16405 0.217082,0.140261 0.334206,0.326378 0.383491,0.609386 0.05704,0.327787 -0.03668,0.646804 -0.253945,0.864073 -0.135081,0.135081 -0.256903,0.200281 -0.451157,0.241453 -0.216405,0.04587 -6.979128,0.03859 -7.166496,-0.0077 z m -5.712006,-3.831815 c -0.130417,-0.04639 -0.220158,-0.125179 -0.800921,-0.703112 -0.359735,-0.357971 -0.689012,-0.704598 -0.731731,-0.770282 -0.118316,-0.181891 -0.151274,-0.368464 -0.09769,-0.55282 0.06457,-0.222114 0.17529,-0.357126 0.374498,-0.456673 0.204599,-0.102238 0.341659,-0.108723 0.561258,-0.02656 0.131744,0.04929 0.215705,0.116575 0.534046,0.427981 l 0.377736,0.369495 0.06296,-0.06652 c 0.03465,-0.03659 0.400832,-0.440938 0.813783,-0.898561 0.412942,-0.457622 0.780183,-0.859064 0.816091,-0.892089 0.114046,-0.10491 0.323995,-0.182877 0.489272,-0.181707 0.426184,0.0029 0.761082,0.454133 0.641788,0.864503 -0.02324,0.07994 -0.07268,0.19017 -0.109856,0.244961 -0.03719,0.05478 -0.565492,0.652125 -1.174016,1.327411 -0.76601,0.850054 -1.139249,1.244545 -1.213145,1.282245 -0.161127,0.08219 -0.368261,0.09429 -0.544086,0.03172 z m 5.712006,-0.942196 c -0.184849,-0.04568 -0.282686,-0.100717 -0.415934,-0.23397 -0.217158,-0.217153 -0.314014,-0.547481 -0.254781,-0.868937 0.05146,-0.279362 0.17006,-0.465711 0.384546,-0.604296 0.264061,-0.170617 0.108503,-0.164051 3.887142,-0.164051 3.778631,0 3.623074,-0.0066 3.887134,0.164051 0.217082,0.140262 0.334206,0.326376 0.383491,0.609385 0.05704,0.327787 -0.03668,0.646805 -0.253945,0.864074 -0.135081,0.135081 -0.256903,0.200278 -0.451157,0.241452 -0.216405,0.04587 -6.979128,0.03859 -7.166496,-0.0077 z"
       style="fill:#404252;stroke-width:0.02728;fill-opacity:1" />
  </g>
</svg>
