<?xml version="1.0" encoding="UTF-8" standalone="no"?>
<svg
   version="1.1"
   width="70"
   height="70"
   viewBox="0,0,70,70"
   id="svg579"
   xmlns="http://www.w3.org/2000/svg"
   xmlns:svg="http://www.w3.org/2000/svg">
  <!-- Generated with https://ivantodorovich.github.io/odoo-icon -->
  <defs
     id="defs569">
    <linearGradient
       x1="70"
       y1="0"
       x2="0"
       y2="70"
       gradientUnits="userSpaceOnUse"
       id="color-1">
      <stop
         offset="0"
         stop-color="#afe675"
         id="stop564" />
      <stop
         offset="1"
         stop-color="#7cb342"
         id="stop566" />
    </linearGradient>
  </defs>
  <g
     fill="none"
     fill-rule="nonzero"
     stroke="none"
     stroke-width="1"
     stroke-linecap="butt"
     stroke-linejoin="miter"
     stroke-miterlimit="10"
     stroke-dasharray=""
     stroke-dashoffset="0"
     font-family="none"
     font-weight="none"
     font-size="none"
     text-anchor="none"
     style="mix-blend-mode: normal"
     id="g577">
    <path
       d="M3.5,70c-1.933,0 -3.5,-1.567 -3.5,-3.5v-63c0,-1.933 1.567,-3.5 3.5,-3.5h63c1.933,0 3.5,1.567 3.5,3.5v63c0,1.933 -1.567,3.5 -3.5,3.5z"
       id="box"
       fill="url(#color-1)" />
    <path
       d="M65,1h-61c-1.95033,0 -3.2667,0.63396 -3.9491,1.90189c0.28378,-1.64806 1.72001,-2.90189 3.4491,-2.90189h63c1.72965,0 3.16627,1.25466 3.44938,2.90352c-0.69803,-1.26902 -2.34782,-1.90352 -4.94938,-1.90352z"
       id="topBoxShadow"
       fill="#ffffff"
       opacity="0.383" />
    <path
       d="M4,69h61c2.66667,0 4.33333,-1 5,-3v0.5c0,1.933 -1.567,3.5 -3.5,3.5h-63c-1.933,0 -3.5,-1.567 -3.5,-3.5c0,-0.1611 0,-0.32777 0,-0.5c0.66667,2 2,3 4,3z"
       id="bottomBoxShadow"
       fill="#000000"
       opacity="0.383" />
    <path
       d="m 45.879537,23.545424 c -0.81558,-0.57822 -1.94627,-0.38617 -2.52449,0.42993 l -2.09456,2.95442 c 0.81558,0.57822 1.00815,1.70891 0.42993,2.52449 -0.57822,0.81558 -1.70891,1.00815 -2.52449,0.42993 l -2.09456,2.95442 c -0.27752,0.39183 -0.38874,0.87788 -0.3079,1.35106 0.08084,0.4737 0.346,0.89539 0.73783,1.17343 l 11.81718,8.37876 c 0.81558,0.57822 1.94627,0.38617 2.52449,-0.42993 l 2.09456,-2.95442 c -0.39183,-0.27752 -0.657,-0.69973 -0.73783,-1.17343 -0.08084,-0.4737 0.03038,-0.95975 0.3079,-1.35106 0.57822,-0.81558 1.70891,-1.00815 2.52449,-0.42993 l 2.09456,-2.95442 c 0.57822,-0.81558 0.38617,-1.94627 -0.42993,-2.52449 l -11.81718,-8.37876 m 6.92266,8.23819 0.32232,1.89324 -10.72922,1.82682 -0.32232,-1.89324 10.72922,-1.82682 m -4.96197,-3.47394 c 0.72393,0.51334 0.89384,1.51016 0.3805,2.2341 -0.2456,0.34652 -0.61941,0.58182 -1.03853,0.65288 -0.41912,0.07157 -0.84905,-0.02677 -1.19608,-0.27238 -0.72393,-0.51334 -0.89384,-1.51016 -0.3805,-2.2341 0.5118,-0.72187 1.51222,-0.8923 2.2341,-0.3805 m 1.37165,8.05335 c 0.72393,0.51334 0.89384,1.51016 0.3805,2.2341 -0.2456,0.34652 -0.61941,0.58182 -1.03853,0.65288 -0.41912,0.07157 -0.84905,-0.02677 -1.19608,-0.27238 -0.72393,-0.51334 -0.89384,-1.51016 -0.3805,-2.2341 0.5118,-0.72187 1.51222,-0.8923 2.2341,-0.3805 z m -22.94955,-18.43657 c 6.59365,0 9.89459,7.97148 5.2328,12.63379 -4.66179,4.66179 -12.63379,1.36085 -12.63379,-5.2328 0,-4.08717 3.3133,-7.40099 7.40099,-7.40099 m 0,-2.9606 c -9.23141,0 -13.85252,11.16018 -7.32581,17.68689 6.52671,6.52671 17.68689,1.9056 17.68689,-7.32581 0,-5.72246 -4.63862,-10.36107 -10.36107,-10.36107 z m 14.80146,41.4443 h -2.96009 v -7.40099 c 0,-4.08717 -3.3133,-7.40099 -7.40099,-7.40099 h -8.88077 c -4.08717,0 -7.40099,3.3133 -7.40099,7.40099 v 7.40099 h -2.96009 v -7.40099 c 0,-5.72246 4.63862,-10.36107 10.36107,-10.36107 h 8.88077 c 5.72246,0 10.36107,4.63862 10.36107,10.36107 z"
       id="shadow"
       fill="#000000"
       opacity="0.3" />
    <path
       d="m 43.59294,23.05224 c 0.6127,-0.6127 1.59583,-0.71265 2.32624,-0.19482 l 11.81718,8.37876 c 0.8161,0.57822 1.00815,1.70891 0.42993,2.52449 l -2.09456,2.95442 -2.52451,2.52451 c 0.11695,0.16504 0.26178,0.3108 0.42995,0.42991 l -2.09456,2.95442 c -0.06039,0.08523 -0.1268,0.16366 -0.19825,0.23511 L 41.10294,53.44046 v 2.28168 L 26.82509,69.99999 H 3.50002 c -1.933,0 -3.5,-1.567 -3.5,-3.5 V 36.2581 L 19.01339,17.24473 c 1.79992,-1.79992 4.30296,-2.96689 7.28809,-2.96689 5.72246,0 10.36107,4.63862 10.36107,10.36107 l -4.41389,4.41389 c -0.2133,0.28234 2.860217,1.327847 2.596987,1.591117 l -7.701667,7.637008 1.54113,-0.320855 z"
       id="flatShadow"
       fill="#000000"
       opacity="0.324" />
    <path
       d="M45.91918,22.85742c-0.81558,-0.57822 -1.94627,-0.38617 -2.52449,0.42993l-2.09456,2.95442c0.81558,0.57822 1.00815,1.70891 0.42993,2.52449c-0.57822,0.81558 -1.70891,1.00815 -2.52449,0.42993l-2.09456,2.95442c-0.27752,0.39183 -0.38874,0.87788 -0.3079,1.35106c0.08084,0.4737 0.346,0.89539 0.73783,1.17343l11.81718,8.37876c0.81558,0.57822 1.94627,0.38617 2.52449,-0.42993l2.09456,-2.95442c-0.39183,-0.27752 -0.657,-0.69973 -0.73783,-1.17343c-0.08084,-0.4737 0.03038,-0.95975 0.3079,-1.35106c0.57822,-0.81558 1.70891,-1.00815 2.52449,-0.42993l2.09456,-2.95442c0.57822,-0.81558 0.38617,-1.94627 -0.42993,-2.52449l-11.81718,-8.37876M52.84184,31.09561l0.32232,1.89324l-10.72922,1.82682l-0.32232,-1.89324l10.72922,-1.82682M47.87987,27.62167c0.72393,0.51334 0.89384,1.51016 0.3805,2.2341c-0.2456,0.34652 -0.61941,0.58182 -1.03853,0.65288c-0.41912,0.07157 -0.84905,-0.02677 -1.19608,-0.27238c-0.72393,-0.51334 -0.89384,-1.51016 -0.3805,-2.2341c0.5118,-0.72187 1.51222,-0.8923 2.2341,-0.3805M49.25101,35.67502c0.72393,0.51334 0.89384,1.51016 0.3805,2.2341c-0.2456,0.34652 -0.61941,0.58182 -1.03853,0.65288c-0.41912,0.07157 -0.84905,-0.02677 -1.19608,-0.27238c-0.72393,-0.51334 -0.89384,-1.51016 -0.3805,-2.2341c0.5118,-0.72187 1.51222,-0.8923 2.2341,-0.3805zM26.30146,17.23845c6.59365,0 9.89459,7.97148 5.2328,12.63379c-4.66179,4.66179 -12.63379,1.36085 -12.63379,-5.2328c0,-4.08717 3.3133,-7.40099 7.40099,-7.40099M26.30146,14.27785c-9.23141,0 -13.85252,11.16018 -7.32581,17.68689c6.52671,6.52671 17.68689,1.9056 17.68689,-7.32581c0,-5.72246 -4.63862,-10.36107 -10.36107,-10.36107zM41.10292,55.72215h-2.96009v-7.40099c0,-4.08717 -3.3133,-7.40099 -7.40099,-7.40099h-8.88077c-4.08717,0 -7.40099,3.3133 -7.40099,7.40099v7.40099h-2.96009v-7.40099c0,-5.72246 4.63862,-10.36107 10.36107,-10.36107h8.88077c5.72246,0 10.36107,4.63862 10.36107,10.36107z"
       id="icon"
       fill="#ffffff" />
  </g>
</svg>
