<svg version="1.1" xmlns="http://www.w3.org/2000/svg" xmlns:xlink="http://www.w3.org/1999/xlink" width="70" height="70" viewBox="0,0,70,70"><!-- Generated with https://ivantodorovich.github.io/odoo-icon --><defs><linearGradient x1="70" y1="0" x2="0" y2="70" gradientUnits="userSpaceOnUse" id="color-1"><stop offset="0" stop-color="#33dff4"/><stop offset="1" stop-color="#00acc1"/></linearGradient></defs><g fill="none" fill-rule="nonzero" stroke="none" stroke-width="1" stroke-linecap="butt" stroke-linejoin="miter" stroke-miterlimit="10" stroke-dasharray="" stroke-dashoffset="0" font-family="none" font-weight="none" font-size="none" text-anchor="none" style="mix-blend-mode: normal"><path d="M3.5,70c-1.933,0 -3.5,-1.567 -3.5,-3.5v-63c0,-1.933 1.567,-3.5 3.5,-3.5h63c1.933,0 3.5,1.567 3.5,3.5v63c0,1.933 -1.567,3.5 -3.5,3.5z" id="box" fill="url(#color-1)"/><path d="M65,1h-61c-1.95033,0 -3.2667,0.63396 -3.9491,1.90189c0.28378,-1.64806 1.72001,-2.90189 3.4491,-2.90189h63c1.72965,0 3.16627,1.25466 3.44938,2.90352c-0.69803,-1.26902 -2.34782,-1.90352 -4.94938,-1.90352z" id="topBoxShadow" fill="#ffffff" opacity="0.383"/><path d="M4,69h61c2.66667,0 4.33333,-1 5,-3v0.5c0,1.933 -1.567,3.5 -3.5,3.5h-63c-1.933,0 -3.5,-1.567 -3.5,-3.5c0,-0.1611 0,-0.32777 0,-0.5c0.66667,2 2,3 4,3z" id="bottomBoxShadow" fill="#000000" opacity="0.383"/><path d="M12.40949,14.41288c-0.84705,0 -1.31598,0.47028 -1.40949,1.4122v2.82305c0,0.94192 0.47028,1.4122 1.40949,1.4122c0.93921,0 1.40678,-0.47028 1.40678,-1.4122v-1.4122h2.81763l8.45425,33.88203h29.57495c1.40949,0 1.40949,-2.82305 0,-2.82305h-26.76003l-1.40949,-5.64746l30.26479,-0.97309c1.08016,-0.00542 2.01259,-0.76031 2.24164,-1.81743v-4.26778c-2.33922,0 -4.23525,-1.89604 -4.23525,-4.23525c0,-2.33922 1.89604,-4.23525 4.23525,-4.23525v-3.76091c0,-1.77406 -0.76709,-2.85151 -2.24164,-2.85151l-35.89734,-0.05015l-1.40949,-4.63235c-0.21142,-0.94192 -0.68035,-1.4122 -1.40949,-1.4122zM56.17559,21.47119c0.77929,0 1.4122,0.63156 1.4122,1.4122c0,0.77929 -0.63156,1.4122 -1.4122,1.4122c-0.77929,0 -1.4122,-0.63156 -1.4122,-1.4122c0,-0.77929 0.63156,-1.4122 1.4122,-1.4122zM29.25564,22.00923c0.19109,0 0.36186,0.12333 0.41878,0.30629l0.26157,0.85789c0.05692,0.18567 0.22498,0.31443 0.41607,0.31443h0.89313c0.41878,0 0.59768,0.54076 0.26428,0.79962l-0.7576,0.58684c-0.14637,0.1152 -0.20736,0.30765 -0.15179,0.48519l0.2819,0.92159c0.12604,0.41472 -0.34695,0.74676 -0.68713,0.48519l-0.67222,-0.52449c-0.15586,-0.12198 -0.37541,-0.12198 -0.53263,0l-0.67493,0.52178c-0.34018,0.26428 -0.80775,-0.06776 -0.68442,-0.48248l0.2819,-0.9243c0.05421,-0.17754 -0.00813,-0.37135 -0.1545,-0.48519l-0.75489,-0.58684c-0.3334,-0.25886 -0.1545,-0.79691 0.26428,-0.79691h0.89042c0.19381,0 0.36457,-0.12875 0.41878,-0.31443l0.26157,-0.85789c0.05692,-0.18296 0.22498,-0.30629 0.41607,-0.30629zM34.11161,23.61931h14.56385c0.44724,0 0.81046,0.36322 0.81046,0.81046c0,0.44724 -0.36322,0.80775 -0.81046,0.80775h-14.56385c-0.44724,0 -0.81046,-0.3605 -0.81046,-0.80775c0,-0.44724 0.36322,-0.81046 0.81046,-0.81046zM29.25564,28.4807c0.19109,0 0.36186,0.12604 0.41878,0.309l0.26157,0.85789c0.05692,0.18567 0.22498,0.31443 0.41607,0.31443h0.89313c0.41878,0 0.59768,0.53805 0.26428,0.79691l-0.7576,0.58684c-0.14637,0.1152 -0.20736,0.30765 -0.15179,0.48519l0.2819,0.92159c0.12604,0.41336 -0.34695,0.74676 -0.68713,0.48519l-0.67222,-0.52449c-0.15586,-0.12198 -0.37541,-0.12198 -0.53263,0l-0.67493,0.52449c-0.34018,0.26428 -0.80775,-0.07047 -0.68442,-0.48519l0.2819,-0.92159c0.05421,-0.17754 -0.00813,-0.37135 -0.1545,-0.48519l-0.75489,-0.58684c-0.3334,-0.25886 -0.1545,-0.79691 0.26428,-0.79691h0.89042c0.19381,0 0.36457,-0.12875 0.41878,-0.31443l0.26157,-0.85789c0.05692,-0.18296 0.22498,-0.309 0.41607,-0.309zM34.11161,30.09349h14.56385c0.44724,0 0.81046,0.3605 0.81046,0.80775c0,0.44724 -0.36322,0.81046 -0.81046,0.81046h-14.56385c-0.44724,0 -0.81046,-0.36322 -0.81046,-0.81046c0,-0.44724 0.36322,-0.80775 0.81046,-0.80775zM29.25564,34.95488c0.19109,0 0.36186,0.12333 0.41878,0.30629l0.26157,0.8606c0.05692,0.18567 0.22498,0.31171 0.41607,0.31171h0.89313c0.41878,0 0.59768,0.54076 0.26428,0.79962l-0.7576,0.58684c-0.14637,0.1152 -0.20736,0.30765 -0.15179,0.48519l0.2819,0.92159c0.12604,0.41336 -0.34695,0.74676 -0.68713,0.48519l-0.67222,-0.52449c-0.15586,-0.12198 -0.37541,-0.12198 -0.53263,0l-0.67493,0.52178c-0.34018,0.26428 -0.80775,-0.06776 -0.68442,-0.48248l0.2819,-0.9243c0.05421,-0.17754 -0.00813,-0.36864 -0.1545,-0.48248l-0.75489,-0.58684c-0.3334,-0.25886 -0.1545,-0.79962 0.26428,-0.79962h0.89042c0.19381,0 0.36457,-0.12875 0.41878,-0.31443l0.26157,-0.85789c0.05692,-0.18296 0.22498,-0.30629 0.41607,-0.30629zM34.11161,36.56767h14.56385c0.44724,0 0.81046,0.3605 0.81046,0.80775c0,0.44724 -0.36322,0.81046 -0.81046,0.81046h-14.56385c-0.44724,0 -0.81046,-0.36322 -0.81046,-0.81046c0,-0.44724 0.36322,-0.80775 0.81046,-0.80775zM56.17559,37.00136c0.77929,0 1.4122,0.63156 1.4122,1.4122c0,0.77929 -0.63156,1.4122 -1.4122,1.4122c-0.77929,0 -1.4122,-0.63156 -1.4122,-1.4122c0,-0.77929 0.63156,-1.4122 1.4122,-1.4122zM25.79019,52.53017c-1.94347,0 -3.52102,1.58161 -3.52102,3.52915c-0.00136,0.93514 0.36864,1.83234 1.03001,2.49372c0.66002,0.66138 1.55722,1.03408 2.49101,1.03543c1.94483,0 3.52102,-1.58161 3.52102,-3.52915c0.00136,-0.93514 -0.36864,-1.83234 -1.03001,-2.49372c-0.66002,-0.66138 -1.55722,-1.03408 -2.49101,-1.03543zM52.55022,52.53017c-1.94483,0 -3.52102,1.58161 -3.52102,3.52915c-0.00271,1.94618 1.57213,3.52509 3.51831,3.52915h0.00271c1.94347,0 3.52102,-1.58161 3.52102,-3.52915c0.00136,-0.93514 -0.36864,-1.83234 -1.03001,-2.49372c-0.66002,-0.66138 -1.55722,-1.03408 -2.49101,-1.03543z" id="shadow" fill="#000000" opacity="0.3"/><path d="M19.45153,13.82373l1.40949,4.63235l35.89734,0.05015c1.47455,0 2.24164,1.07745 2.24164,2.85151v3.76091l-4.23525,4.23525c0,2.33922 1.89604,4.23525 4.23525,4.23525v4.26778c-0.09649,0.44536 -0.31783,0.83707 -0.62246,1.1417l-7.29628,7.29628l3.58184,0c1.14058,0 1.35819,1.84862 0.65282,2.55399l-1.81377,1.81377c0.57685,0.16278 1.10844,0.47141 1.53908,0.90293c0.66138,0.66138 1.03137,1.55857 1.03001,2.49372c0,0.9753 -0.39562,1.85882 -1.03471,2.49791l-13.44277,13.44277h-38.09376c-1.933,0 -3.5,-1.567 -3.5,-3.5l0,-42.31207l11.42302,-11.42302c0.23475,-0.23475 0.56346,-0.35204 0.98648,-0.35204l5.63255,-0.00136c0.72914,0 1.19807,0.47028 1.40949,1.4122z" id="flatShadow" fill="#000000" opacity="0.324"/><path d="M12.40949,12.41288c-0.84705,0 -1.31598,0.47028 -1.40949,1.4122v2.82305c0,0.94192 0.47028,1.4122 1.40949,1.4122c0.93921,0 1.40678,-0.47028 1.40678,-1.4122v-1.4122h2.81763l8.45425,33.88203h29.57495c1.40949,0 1.40949,-2.82305 0,-2.82305h-26.76003l-1.40949,-5.64746l30.26479,-0.97309c1.08016,-0.00542 2.01259,-0.76031 2.24164,-1.81743v-4.26778c-2.33922,0 -4.23525,-1.89604 -4.23525,-4.23525c0,-2.33922 1.89604,-4.23525 4.23525,-4.23525v-3.76091c0,-1.77406 -0.76709,-2.85151 -2.24164,-2.85151l-35.89734,-0.05015l-1.40949,-4.63235c-0.21142,-0.94192 -0.68035,-1.4122 -1.40949,-1.4122zM56.17559,19.47119c0.77929,0 1.4122,0.63156 1.4122,1.4122c0,0.77929 -0.63156,1.4122 -1.4122,1.4122c-0.77929,0 -1.4122,-0.63156 -1.4122,-1.4122c0,-0.77929 0.63156,-1.4122 1.4122,-1.4122zM29.25564,20.00923c0.19109,0 0.36186,0.12333 0.41878,0.30629l0.26157,0.85789c0.05692,0.18567 0.22498,0.31443 0.41607,0.31443h0.89313c0.41878,0 0.59768,0.54076 0.26428,0.79962l-0.7576,0.58684c-0.14637,0.1152 -0.20736,0.30765 -0.15179,0.48519l0.2819,0.92159c0.12604,0.41472 -0.34695,0.74676 -0.68713,0.48519l-0.67222,-0.52449c-0.15586,-0.12198 -0.37541,-0.12198 -0.53263,0l-0.67493,0.52178c-0.34018,0.26428 -0.80775,-0.06776 -0.68442,-0.48248l0.2819,-0.9243c0.05421,-0.17754 -0.00813,-0.37135 -0.1545,-0.48519l-0.75489,-0.58684c-0.3334,-0.25886 -0.1545,-0.79691 0.26428,-0.79691h0.89042c0.19381,0 0.36457,-0.12875 0.41878,-0.31443l0.26157,-0.85789c0.05692,-0.18296 0.22498,-0.30629 0.41607,-0.30629zM34.11161,21.61931h14.56385c0.44724,0 0.81046,0.36322 0.81046,0.81046c0,0.44724 -0.36322,0.80775 -0.81046,0.80775h-14.56385c-0.44724,0 -0.81046,-0.3605 -0.81046,-0.80775c0,-0.44724 0.36322,-0.81046 0.81046,-0.81046zM29.25564,26.4807c0.19109,0 0.36186,0.12604 0.41878,0.309l0.26157,0.85789c0.05692,0.18567 0.22498,0.31443 0.41607,0.31443h0.89313c0.41878,0 0.59768,0.53805 0.26428,0.79691l-0.7576,0.58684c-0.14637,0.1152 -0.20736,0.30765 -0.15179,0.48519l0.2819,0.92159c0.12604,0.41336 -0.34695,0.74676 -0.68713,0.48519l-0.67222,-0.52449c-0.15586,-0.12198 -0.37541,-0.12198 -0.53263,0l-0.67493,0.52449c-0.34018,0.26428 -0.80775,-0.07047 -0.68442,-0.48519l0.2819,-0.92159c0.05421,-0.17754 -0.00813,-0.37135 -0.1545,-0.48519l-0.75489,-0.58684c-0.3334,-0.25886 -0.1545,-0.79691 0.26428,-0.79691h0.89042c0.19381,0 0.36457,-0.12875 0.41878,-0.31443l0.26157,-0.85789c0.05692,-0.18296 0.22498,-0.309 0.41607,-0.309zM34.11161,28.09349h14.56385c0.44724,0 0.81046,0.3605 0.81046,0.80775c0,0.44724 -0.36322,0.81046 -0.81046,0.81046h-14.56385c-0.44724,0 -0.81046,-0.36322 -0.81046,-0.81046c0,-0.44724 0.36322,-0.80775 0.81046,-0.80775zM29.25564,32.95488c0.19109,0 0.36186,0.12333 0.41878,0.30629l0.26157,0.8606c0.05692,0.18567 0.22498,0.31171 0.41607,0.31171h0.89313c0.41878,0 0.59768,0.54076 0.26428,0.79962l-0.7576,0.58684c-0.14637,0.1152 -0.20736,0.30765 -0.15179,0.48519l0.2819,0.92159c0.12604,0.41336 -0.34695,0.74676 -0.68713,0.48519l-0.67222,-0.52449c-0.15586,-0.12198 -0.37541,-0.12198 -0.53263,0l-0.67493,0.52178c-0.34018,0.26428 -0.80775,-0.06776 -0.68442,-0.48248l0.2819,-0.9243c0.05421,-0.17754 -0.00813,-0.36864 -0.1545,-0.48248l-0.75489,-0.58684c-0.3334,-0.25886 -0.1545,-0.79962 0.26428,-0.79962h0.89042c0.19381,0 0.36457,-0.12875 0.41878,-0.31443l0.26157,-0.85789c0.05692,-0.18296 0.22498,-0.30629 0.41607,-0.30629zM34.11161,34.56767h14.56385c0.44724,0 0.81046,0.3605 0.81046,0.80775c0,0.44724 -0.36322,0.81046 -0.81046,0.81046h-14.56385c-0.44724,0 -0.81046,-0.36322 -0.81046,-0.81046c0,-0.44724 0.36322,-0.80775 0.81046,-0.80775zM56.17559,35.00136c0.77929,0 1.4122,0.63156 1.4122,1.4122c0,0.77929 -0.63156,1.4122 -1.4122,1.4122c-0.77929,0 -1.4122,-0.63156 -1.4122,-1.4122c0,-0.77929 0.63156,-1.4122 1.4122,-1.4122zM25.79019,50.53017c-1.94347,0 -3.52102,1.58161 -3.52102,3.52915c-0.00136,0.93514 0.36864,1.83234 1.03001,2.49372c0.66002,0.66138 1.55722,1.03408 2.49101,1.03543c1.94483,0 3.52102,-1.58161 3.52102,-3.52915c0.00136,-0.93514 -0.36864,-1.83234 -1.03001,-2.49372c-0.66002,-0.66138 -1.55722,-1.03408 -2.49101,-1.03543zM52.55022,50.53017c-1.94483,0 -3.52102,1.58161 -3.52102,3.52915c-0.00271,1.94618 1.57213,3.52509 3.51831,3.52915h0.00271c1.94347,0 3.52102,-1.58161 3.52102,-3.52915c0.00136,-0.93514 -0.36864,-1.83234 -1.03001,-2.49372c-0.66002,-0.66138 -1.55722,-1.03408 -2.49101,-1.03543z" id="icon" fill="#ffffff"/></g></svg>