<?xml version="1.0" encoding="UTF-8" standalone="no"?>
<svg
   xmlns:svg="http://www.w3.org/2000/svg"
   xmlns="http://www.w3.org/2000/svg"
   xmlns:xlink="http://www.w3.org/1999/xlink"
   xmlns:sodipodi="http://sodipodi.sourceforge.net/DTD/sodipodi-0.dtd"
   xmlns:inkscape="http://www.inkscape.org/namespaces/inkscape"
   width="70"
   height="70"
   viewBox="0 0 70 70"
   version="1.1"
   id="svg33"
   sodipodi:docname="icon.svg"
   inkscape:export-filename="/home/david/odoo/oca13/odoo/custom/src/sale-promotion/sale_coupon_incompatibility/static/description/icon.png"
   inkscape:export-xdpi="192"
   inkscape:export-ydpi="192"
   inkscape:version="1.1-dev (1:1.0+devel+202007152027+7044d6c)">
  <sodipodi:namedview
     pagecolor="#ffffff"
     bordercolor="#666666"
     borderopacity="1"
     objecttolerance="10"
     gridtolerance="10"
     guidetolerance="10"
     inkscape:pageopacity="0"
     inkscape:pageshadow="2"
     inkscape:window-width="1867"
     inkscape:window-height="1016"
     id="namedview35"
     showgrid="false"
     inkscape:zoom="2.1364727"
     inkscape:cx="-40.019234"
     inkscape:cy="68.570969"
     inkscape:window-x="1973"
     inkscape:window-y="27"
     inkscape:window-maximized="1"
     inkscape:current-layer="layer3" />
  <defs
     id="defs12">
    <path
       id="a"
       d="M4 0h61c4 0 5 1 5 5v60c0 4-1 5-5 5H4c-3 0-4-1-4-5V5c0-4 1-5 4-5z" />
    <linearGradient
       id="c"
       x1="98.162%"
       x2="0%"
       y1="1.838%"
       y2="100%">
      <stop
         offset="0%"
         stop-color="#797DA5"
         id="stop3" />
      <stop
         offset="50.799%"
         stop-color="#6D7194"
         id="stop5" />
      <stop
         offset="100%"
         stop-color="#626584"
         id="stop7" />
    </linearGradient>
    <path
       id="d"
       d="M50 31.035a3.5 3.5 0 1 0 0 6.93v3.06a1.633 1.633 0 0 1-1.588 1.286L26.974 43l.998 4h18.955c.998 0 .998 2 0 2h-20.95L19.99 25h-1.996v1c0 .667-.332 1-.997 1S16 26.667 16 26v-2c.066-.667.398-1 .998-1h3.99c.516 0 .848.333.998 1l.998 3.281 25.428.037c1.045 0 1.588.761 1.588 2.018v1.7zM45.43 55a2.497 2.497 0 0 1-2.493-2.5c0-1.38 1.116-2.5 2.494-2.5a2.497 2.497 0 0 1 2.494 2.5c0 1.38-1.117 2.5-2.494 2.5zm-18.955 0a2.497 2.497 0 0 1-2.494-2.5c0-1.38 1.117-2.5 2.494-2.5a2.497 2.497 0 0 1 2.495 2.5c0 1.38-1.117 2.5-2.495 2.5zm12.7-24.996a.51.51 0 0 0-.409.2l-7.668 9.056c-.233.31.004.738.41.738l.696-.002a.51.51 0 0 0 .409-.2l7.63-9.056c.234-.312-.005-.74-.41-.738l-.658.002zm-5.841 4.371c1.29 0 2.334-.979 2.334-2.188 0-1.208-1.044-2.187-2.334-2.187S31 30.979 31 32.188c0 1.208 1.044 2.187 2.334 2.187zm0-3.125c.552 0 1 .42 1 .938 0 .517-.448.937-1 .937s-1-.42-1-.938c0-.517.448-.937 1-.937zm4.668 4.375c-1.29 0-2.334.979-2.334 2.188 0 1.208 1.044 2.187 2.334 2.187s2.334-.979 2.334-2.188c0-1.208-1.044-2.187-2.334-2.187zm0 3.125c-.553 0-1-.42-1-.938 0-.517.447-.937 1-.937.552 0 1 .42 1 .938 0 .517-.448.937-1 .937z" />
    <path
       id="e"
       d="M50 30a3 3 0 0 0 0 6v3.025a1.633 1.633 0 0 1-1.588 1.286L26.974 41l.998 4h18.955c.998 0 .998 2 0 2h-20.95L19.99 23h-1.996v1c0 .667-.332 1-.997 1S16 24.667 16 24v-2c.066-.667.398-1 .998-1h3.99c.516 0 .848.333.998 1l.998 3.281 25.428.037c1.045 0 1.588.761 1.588 2.018V30zm-4.57 23a2.497 2.497 0 0 1-2.493-2.5c0-1.38 1.116-2.5 2.494-2.5a2.497 2.497 0 0 1 2.494 2.5c0 1.38-1.117 2.5-2.494 2.5zm-18.955 0a2.497 2.497 0 0 1-2.494-2.5c0-1.38 1.117-2.5 2.494-2.5a2.497 2.497 0 0 1 2.495 2.5c0 1.38-1.117 2.5-2.495 2.5zM48 26a1 1 0 1 0 0 2 1 1 0 0 0 0-2zm0 11a1 1 0 1 0 0 2 1 1 0 0 0 0-2zm-8.825-8.996a.51.51 0 0 0-.409.2l-7.668 9.056c-.233.31.004.738.41.738l.696-.002a.51.51 0 0 0 .409-.2l7.63-9.056c.234-.312-.005-.74-.41-.738l-.658.002zm-5.841 4.371c1.29 0 2.334-.979 2.334-2.188 0-1.208-1.044-2.187-2.334-2.187S31 28.979 31 30.188c0 1.208 1.044 2.187 2.334 2.187zm0-3.125c.552 0 1 .42 1 .938 0 .517-.448.937-1 .937s-1-.42-1-.938c0-.517.448-.937 1-.937zm4.668 4.375c-1.29 0-2.334.979-2.334 2.188 0 1.208 1.044 2.187 2.334 2.187s2.334-.979 2.334-2.188c0-1.208-1.044-2.187-2.334-2.187zm0 3.125c-.553 0-1-.42-1-.938 0-.517.447-.937 1-.937.552 0 1 .42 1 .938 0 .517-.448.937-1 .937z" />
  </defs>
  <g
     fill="none"
     fill-rule="evenodd"
     id="g31">
    <mask
       id="b"
       fill="#fff">
      <use
         xlink:href="#a"
         id="use14" />
    </mask>
    <g
       mask="url(#b)"
       id="g29">
      <path
         fill="url(#c)"
         d="M0 0H70V70H0z"
         id="path17" />
      <path
         fill="#FFF"
         fill-opacity=".383"
         d="M4 1h61c2.667 0 4.333.667 5 2V0H0v3c.667-1.333 2-2 4-2z"
         id="path19" />
      <path
         fill="#393939"
         d="M33.317 69H4c-2 0-4-1-4-4V38.29l16.258-16.95L21 21l2 5h26.583l.371 3.987-3.862 4.883 3.764 1.445-.11 3.27L45.076 45H47l.507 1.61-1.993 1.943 1.815 3.434L33.317 69z"
         opacity=".324"
         id="path21" />
      <path
         fill="#000"
         fill-opacity=".383"
         d="M4 69h61c2.667 0 4.333-1 5-3v4H0v-4c.667 2 2 3 4 3z"
         id="path23" />
      <use
         fill="#000"
         fill-rule="nonzero"
         opacity=".3"
         xlink:href="#d"
         id="use25" />
      <use
         fill="#FFF"
         fill-rule="nonzero"
         xlink:href="#e"
         id="use27" />
    </g>
  </g>
  <g
     inkscape:groupmode="layer"
     id="layer1"
     inkscape:label="Layer 1"
     sodipodi:insensitive="true" />
  <g
     inkscape:groupmode="layer"
     id="layer2"
     inkscape:label="Layer 2"
     sodipodi:insensitive="true" />
  <rect
     style="fill:#ffffff"
     id="rect41"
     width="18.367119"
     height="12.044328"
     x="26.893293"
     y="26.564003" />
  <g
     inkscape:groupmode="layer"
     id="layer3"
     inkscape:label="Layer 3">
    <path
       id="path39"
       d="m 35.20834,39.48587 c -0.09388,-0.04344 -0.387248,-0.322202 -0.879434,-0.835607 -0.40621,-0.423726 -1.761147,-1.830268 -3.010965,-3.125647 -1.24982,-1.29538 -2.356414,-2.466241 -2.459098,-2.601912 -0.225816,-0.298365 -0.538778,-0.932552 -0.638413,-1.293692 -0.349196,-1.265701 -0.01816,-2.675433 0.865779,-3.686804 0.386903,-0.442685 1.009437,-0.889814 1.491228,-1.071058 0.956265,-0.359735 2.017886,-0.31244 2.997336,0.133531 l 0.2681,0.122073 0.555748,1.309101 c 0.305662,0.720006 0.562943,1.335698 0.571727,1.368206 0.01218,0.04503 -0.313147,0.278631 -1.365968,0.980856 l -1.38195,0.921751 2.054884,2.055113 c 1.130189,1.130312 2.060335,2.049667 2.066989,2.043011 0.0089,-0.0089 -1.165729,-3.218216 -1.310182,-3.579482 -0.0169,-0.04227 0.303434,-0.272058 1.367201,-0.980769 1.361308,-0.906943 1.388655,-0.927451 1.358717,-1.01889 -0.208062,-0.635493 -0.879354,-2.911304 -0.867578,-2.941255 0.02364,-0.06009 0.64611,-0.359738 0.961031,-0.462606 0.464894,-0.151856 0.853886,-0.20385 1.369469,-0.183047 0.938831,0.03789 1.725063,0.396483 2.447951,1.116509 1.36517,1.359774 1.569287,3.388277 0.502799,4.996767 -0.152682,0.230277 -0.591217,0.705732 -1.82256,1.976 -0.891829,0.920018 -2.287018,2.360609 -3.100427,3.201315 -0.905702,0.936093 -1.522851,1.546911 -1.592251,1.575915 -0.153155,0.06401 -0.281934,0.05847 -0.450133,-0.01937 z"
       style="fill:#404253;stroke-width:0.035216;fill-opacity:1" />
  </g>
</svg>
